<svg width="163" height="48" viewBox="0 0 163 48" fill="none" xmlns="http://www.w3.org/2000/svg">
<path d="M85.7882 15.8784C84.7008 15.8784 83.7841 15.4983 83.0591 14.7502C82.3401 14.023 81.9387 13.0205 81.9567 11.9971C81.9567 10.9048 82.3281 9.98012 83.0591 9.24695C83.7811 8.49882 84.6978 8.11877 85.7852 8.11877C86.8607 8.11877 87.7774 8.49882 88.5144 9.24695C89.2453 10.0041 89.6168 10.9287 89.6168 11.9971C89.6048 13.0923 89.2334 14.017 88.5144 14.7472C87.7924 15.5013 86.8757 15.8784 85.7882 15.8784ZM53.4311 15.8784C52.3676 15.8784 51.4449 15.5043 50.6899 14.7652C49.941 14.029 49.5605 13.0983 49.5605 12.0001C49.5605 10.9018 49.941 9.97114 50.6899 9.23498C51.4299 8.49583 52.3526 8.12177 53.4311 8.12177C53.9583 8.12177 54.4706 8.22651 54.9619 8.43897C55.4442 8.64546 55.8367 8.92675 56.1272 9.27089L56.1991 9.35768L55.3873 10.1537L55.3034 10.0549C54.8451 9.51029 54.2309 9.24396 53.4191 9.24396C52.6941 9.24396 52.062 9.50132 51.5407 10.01C51.0165 10.5218 50.7499 11.1921 50.7499 12.0031C50.7499 12.814 51.0165 13.4844 51.5407 13.9961C52.062 14.5048 52.6941 14.7622 53.4191 14.7622C54.192 14.7622 54.8421 14.5048 55.3483 13.9961C55.6479 13.6968 55.8337 13.2779 55.8996 12.7482H53.2963V11.629H57.017L57.032 11.7307C57.0589 11.9193 57.0859 12.1138 57.0859 12.2933C57.0859 13.3258 56.7743 14.1607 56.1572 14.7771C55.4562 15.5073 54.5395 15.8784 53.4311 15.8784ZM96.4531 15.7198H95.3058L91.7917 10.1028L91.8217 11.1143V15.7168H90.6743V8.28037H91.9835L92.0194 8.33723L95.3237 13.628L95.2938 12.6195V8.28037H96.4531V15.7198ZM77.1664 15.7198H76.0041V9.39957H73.9879V8.28037H79.1796V9.39957H77.1634V15.7198H77.1664ZM73.0413 15.7198H71.8819V8.28037H73.0413V15.7198ZM66.5255 15.7198H65.3662V9.39957H63.35V8.28037H68.5417V9.39957H66.5255V15.7198ZM62.6161 15.7078H58.1703V8.28037H62.6161V9.39957H59.3327V11.4405H62.2955V12.5477H59.3327V14.5886H62.6161V15.7078ZM83.9099 13.9811C84.4282 14.4988 85.0573 14.7592 85.7882 14.7592C86.5402 14.7592 87.1543 14.5048 87.6666 13.9811C88.1759 13.4724 88.4335 12.8051 88.4335 12.0001C88.4335 11.1951 88.1758 10.5248 87.6696 10.019C87.1513 9.50132 86.5192 9.24097 85.7912 9.24097C85.0393 9.24097 84.4252 9.49533 83.9159 10.019C83.4066 10.5277 83.149 11.1951 83.149 12.0001C83.149 12.8051 83.4036 13.4754 83.9099 13.9811Z" fill="white"/>
<path fill-rule="evenodd" clip-rule="evenodd" d="M81.848 26.1067C79.017 26.1067 76.7222 28.2523 76.7222 31.2119C76.7222 34.1446 79.032 36.3172 81.848 36.3172C84.679 36.3172 86.9737 34.1566 86.9737 31.2119C86.9737 28.2523 84.679 26.1067 81.848 26.1067ZM81.848 34.2942C80.2992 34.2942 78.9661 33.0134 78.9661 31.1999C78.9661 29.3595 80.3022 28.1057 81.848 28.1057C83.3968 28.1057 84.7299 29.3595 84.7299 31.1999C84.7329 33.0254 83.3968 34.2942 81.848 34.2942ZM70.6648 26.1067C67.8338 26.1067 65.5391 28.2523 65.5391 31.2119C65.5391 34.1446 67.8488 36.3172 70.6648 36.3172C73.4958 36.3172 75.7906 34.1566 75.7906 31.2119C75.7906 28.2523 73.4928 26.1067 70.6648 26.1067ZM70.6648 34.2942C69.116 34.2942 67.7829 33.0134 67.7829 31.1999C67.7829 29.3595 69.119 28.1057 70.6648 28.1057C72.2136 28.1057 73.5467 29.3595 73.5467 31.1999C73.5467 33.0254 72.2136 34.2942 70.6648 34.2942ZM57.3577 27.6658V29.8264H62.5493C62.3905 31.0384 61.9891 31.9331 61.375 32.5466C60.6141 33.3067 59.4397 34.1326 57.3696 34.1326C54.1792 34.1326 51.6837 31.559 51.6837 28.372C51.6837 25.185 54.1792 22.6114 57.3696 22.6114C59.0922 22.6114 60.3474 23.2907 61.2791 24.1585L62.8129 22.6264C61.5188 21.3875 59.7962 20.4388 57.3816 20.4388C53.0048 20.4388 49.332 23.9999 49.332 28.36C49.332 32.7321 53.0018 36.2812 57.3816 36.2812C59.7453 36.2812 61.5188 35.5092 62.9208 34.0548C64.3498 32.6274 64.8021 30.6134 64.8021 28.9885C64.8021 28.4827 64.7632 28.0279 64.6823 27.6418H57.3547C57.3577 27.6388 57.3577 27.6658 57.3577 27.6658ZM111.788 29.3476C111.359 28.2014 110.065 26.0947 107.411 26.0947C104.78 26.0947 102.594 28.1625 102.594 31.1999C102.594 34.0668 104.757 36.3052 107.665 36.3052C110.002 36.3052 111.362 34.8778 111.922 34.0399L110.188 32.8788C109.613 33.7316 108.813 34.2912 107.677 34.2912C106.53 34.2912 105.727 33.7705 105.194 32.7441L112.027 29.9162C112.027 29.9191 111.788 29.3476 111.788 29.3476ZM104.819 31.0533C104.766 29.0812 106.353 28.0787 107.489 28.0787C108.384 28.0787 109.13 28.5186 109.385 29.159L104.819 31.0533ZM99.2683 36H101.512V21.0014H99.2683V36ZM95.5835 27.2408H95.5026C94.9964 26.6393 94.0347 26.0947 92.8065 26.0947C90.2571 26.0947 87.9084 28.3361 87.9084 31.2149C87.9084 34.0817 90.2451 36.2962 92.8065 36.2962C94.0197 36.2962 94.9964 35.7486 95.5026 35.1351H95.5835V35.8683C95.5835 37.8164 94.541 38.8668 92.8604 38.8668C91.4853 38.8668 90.6315 37.8793 90.284 37.0533L88.3338 37.8673C88.894 39.2139 90.3889 40.8808 92.8574 40.8808C95.4877 40.8808 97.7165 39.3336 97.7165 35.5601V26.3999H95.5955V27.2408C95.5985 27.2408 95.5835 27.2408 95.5835 27.2408ZM93.0072 34.2942C91.4584 34.2942 90.1642 33.0014 90.1642 31.2149C90.1642 29.4134 91.4584 28.1087 93.0072 28.1087C94.541 28.1087 95.7303 29.4284 95.7303 31.2149C95.7453 33.0014 94.544 34.2942 93.0072 34.2942ZM122.294 21.0014H116.928V36H119.172V30.3201H122.297C124.78 30.3201 127.222 28.5216 127.222 25.6668C127.222 22.8119 124.789 21.0014 122.294 21.0014ZM122.36 28.2254H119.169V23.0782H122.36C124.04 23.0782 124.99 24.4638 124.99 25.6518C124.99 26.8279 124.028 28.2254 122.36 28.2254ZM136.215 26.0797C134.585 26.0797 132.905 26.8009 132.21 28.372L134.199 29.198C134.627 28.372 135.412 28.0907 136.242 28.0907C137.404 28.0907 138.579 28.785 138.606 30.0239V30.1825C138.204 29.9551 137.323 29.6079 136.269 29.6079C134.121 29.6079 131.943 30.781 131.943 32.9805C131.943 34.9945 133.705 36.2872 135.667 36.2872C137.174 36.2872 138.003 35.6079 138.522 34.8209H138.603V35.982H140.766V30.2364C140.766 27.561 138.776 26.0797 136.215 26.0797ZM135.933 34.2942C135.199 34.2942 134.172 33.9351 134.172 33.0134C134.172 31.8523 135.454 31.4124 136.548 31.4124C137.536 31.4124 138.003 31.6249 138.591 31.9182C138.429 33.2648 137.29 34.2822 135.933 34.2942ZM148.656 26.3999L146.08 32.9057H145.999L143.33 26.3999H140.915L144.921 35.4942L142.638 40.5486H144.975L151.137 26.3999H148.656ZM128.459 36H130.703V21.0014H128.459V36Z" fill="white"/>
<path fill-rule="evenodd" clip-rule="evenodd" d="M12.5346 9.04039C12.187 9.41446 11.9863 9.98603 11.9863 10.7342V37.2688C11.9863 38.017 12.187 38.5885 12.5465 38.9476L12.6394 39.0284L27.5223 24.1616V23.8294L12.6274 8.95959L12.5346 9.04039Z" fill="white"/>
<path fill-rule="evenodd" clip-rule="evenodd" d="M32.4737 29.1321L27.5098 24.1735V23.8264L32.4737 18.8678L32.5816 18.9336L38.4533 22.2673C40.1339 23.2129 40.1339 24.775 38.4533 25.7326L32.5816 29.0663L32.4737 29.1321Z" fill="white"/>
<path fill-rule="evenodd" clip-rule="evenodd" d="M32.5828 29.0663L27.5109 24L12.5352 38.9596C13.0834 39.5461 14.0031 39.612 15.0306 39.0404L32.5828 29.0663Z" fill="white"/>
<path fill-rule="evenodd" clip-rule="evenodd" d="M32.5828 18.9336L15.0306 8.97446C14.0031 8.38792 13.0804 8.46872 12.5352 9.05526L27.5109 23.9999L32.5828 18.9336Z" fill="white"/>
<path opacity="0.25" fill-rule="evenodd" clip-rule="evenodd" d="M15.03 9.14812L38.4538 22.4409C39.2148 22.8688 39.6432 23.4284 39.7091 24C39.7091 23.3746 39.2956 22.7461 38.4538 22.2673L15.03 8.97456C13.3494 8.01396 11.9863 8.81595 11.9863 10.7342V10.9077C11.9863 8.98653 13.3494 8.1995 15.03 9.14812Z" fill="white"/>
</svg>
